<svg width="32" height="32" viewBox="0 0 32 32" fill="none" xmlns="http://www.w3.org/2000/svg">
<rect width="32" height="32" rx="4.5" fill="black"/>
<path d="M12.8429 9.70903C16.0311 10.8239 19.7036 10.1626 22.3172 7.72499C23.8531 6.29248 25.9899 8.297 24.4835 9.89556C21.1237 13.4609 21.2333 18.6965 24.5892 22.2655C25.1493 22.8645 25.1169 23.8055 24.5164 24.3644C23.9156 24.9235 22.9706 24.8927 22.4103 24.2934C19.3125 20.999 18.2704 16.7392 19.508 12.6785C17.7629 13.203 15.9243 13.3336 14.1327 13.0702C13.7564 11.6108 13.4429 10.9327 12.8429 9.70903Z" fill="white"/>
<path d="M19.2094 22.3079C16.0092 21.1675 12.3108 21.8227 9.68302 24.2735C8.14711 25.706 6.01026 23.7015 7.51665 22.103C10.8765 18.5376 10.7669 13.302 7.41094 9.73303C6.85092 9.13405 6.8833 8.19301 7.48378 7.63416C8.08459 7.075 9.02955 7.10584 9.58988 7.70516C12.6877 10.9995 13.7298 15.2593 12.4922 19.3201C14.2492 18.792 16.1008 18.6632 17.904 18.9338C18.2083 20.0858 18.4405 20.7956 19.2094 22.3079Z" fill="white"/>
</svg>
